<svg xmlns="http://www.w3.org/2000/svg" viewBox="0 0 900 1200" role="img" aria-label="Автоматизация процессов: рост выручки на 71% и 41 новый проект">
  <defs>
    <linearGradient id="bg" x1="0" y1="0" x2="1" y2="1">
      <stop offset="0" stop-color="#010305"/><stop offset=".52" stop-color="#08111a"/><stop offset="1" stop-color="#020406"/>
    </linearGradient>
    <linearGradient id="chrome" x1="0" y1="0" x2="1" y2="1">
      <stop offset="0" stop-color="#faffff"/><stop offset=".14" stop-color="#5f6872"/><stop offset=".31" stop-color="#ffffff"/><stop offset=".48" stop-color="#20262c"/><stop offset=".67" stop-color="#e5eef4"/><stop offset=".84" stop-color="#66717b"/><stop offset="1" stop-color="#f8fcff"/>
    </linearGradient>
    <linearGradient id="steel" x1="0" y1="0" x2="1" y2="0">
      <stop offset="0" stop-color="#26313b"/><stop offset=".28" stop-color="#f4fbff"/><stop offset=".5" stop-color="#707b85"/><stop offset=".72" stop-color="#ffffff"/><stop offset="1" stop-color="#2d3740"/>
    </linearGradient>
    <radialGradient id="glow"><stop offset="0" stop-color="#7bdfff" stop-opacity=".48"/><stop offset="1" stop-color="#7bdfff" stop-opacity="0"/></radialGradient>
    <filter id="soft" x="-80%" y="-80%" width="260%" height="260%"><feGaussianBlur stdDeviation="15"/></filter>
    <filter id="shine" x="-80%" y="-80%" width="260%" height="260%"><feGaussianBlur stdDeviation="5" result="b"/><feMerge><feMergeNode in="b"/><feMergeNode in="SourceGraphic"/></feMerge></filter>
    <pattern id="grid" width="72" height="72" patternUnits="userSpaceOnUse"><path d="M72 0H0V72" fill="none" stroke="#638096" stroke-opacity=".11"/></pattern>
    <style>
      .metric{font:700 116px Arial,sans-serif;fill:url(#chrome);letter-spacing:-6px}.label{font:500 20px Arial,sans-serif;fill:#b6c2ca;letter-spacing:2.4px}.small{font:500 18px Arial,sans-serif;fill:#aab8c2;letter-spacing:1.6px}.wire{fill:none;stroke:#d8e8f2;stroke-opacity:.82;stroke-width:5;stroke-linecap:round}.hand{fill:none;stroke:url(#steel);stroke-width:8;stroke-linecap:round;stroke-linejoin:round}.thin{fill:none;stroke:#a8bac5;stroke-opacity:.45;stroke-width:3}.pill{fill:#03070a;stroke:#71828e;stroke-width:2}
    </style>
  </defs>

  <rect width="900" height="1200" rx="42" fill="url(#bg)"/>
  <rect width="900" height="1200" rx="42" fill="url(#grid)"/>
  <circle cx="450" cy="230" r="235" fill="url(#glow)" opacity=".32"/>

  <g opacity=".96">
    <path class="hand" d="M-45 128C54 110 116 105 178 116C238 127 286 156 342 204"/>
    <path class="hand" d="M-20 176C70 154 132 152 202 164C258 174 304 194 362 228"/>
    <path class="hand" d="M34 83L150 117M72 58L176 108M124 45L214 114"/>
    <circle cx="185" cy="120" r="22" fill="#060a0d" stroke="url(#steel)" stroke-width="8"/>
    <circle cx="270" cy="157" r="17" fill="#060a0d" stroke="url(#steel)" stroke-width="7"/>
    <path class="hand" d="M945 128C846 110 784 105 722 116C662 127 614 156 558 204"/>
    <path class="hand" d="M920 176C830 154 768 152 698 164C642 174 596 194 538 228"/>
    <path class="hand" d="M866 83L750 117M828 58L724 108M776 45L686 114"/>
  </g>

  <circle cx="450" cy="218" r="9" fill="#e9fbff" filter="url(#shine)"/>
  <path d="M450 226C435 278 428 308 385 350C340 394 293 416 230 438" class="wire"/>
  <path d="M450 226C448 292 444 334 445 440" class="wire"/>
  <path d="M450 226C474 286 495 324 562 365C610 395 658 410 720 438" class="wire"/>
  <path d="M450 226C480 270 510 305 620 332" class="wire" opacity=".55"/>

  <text x="450" y="335" text-anchor="middle" class="small" style="font-size:33px;letter-spacing:1px;fill:url(#chrome)">АВТОМАТИЗАЦИЯ</text>
  <text x="450" y="372" text-anchor="middle" class="small" style="font-size:33px;letter-spacing:1px;fill:url(#chrome)">ПРОЦЕССОВ</text>

  <g transform="translate(88 430)">
    <path d="M38 74C18 74 4 60 4 42C4 24 18 10 36 10C46-6 78-8 92 16C117 12 136 30 136 53C136 66 125 74 110 74Z" fill="none" stroke="url(#chrome)" stroke-width="9"/>
    <text x="70" y="112" text-anchor="middle" class="small">БИТРИКС24</text>
  </g>
  <g transform="translate(330 425)">
    <text x="86" y="78" text-anchor="middle" style="font:700 105px Arial;fill:url(#chrome)">1C</text>
    <text x="86" y="116" text-anchor="middle" class="small">1С</text>
  </g>
  <g transform="translate(545 425)">
    <rect x="22" y="44" width="22" height="45" fill="url(#chrome)"/><rect x="55" y="20" width="22" height="69" fill="url(#chrome)"/><rect x="88" y="-6" width="22" height="95" fill="url(#chrome)"/><rect x="121" y="-34" width="22" height="123" fill="url(#chrome)"/>
    <text x="84" y="126" text-anchor="middle" class="small">DATALENS</text>
  </g>
  <g transform="translate(728 426)">
    <circle cx="58" cy="52" r="46" fill="none" stroke="url(#chrome)" stroke-width="8"/><path d="M58 6V98M22 34C47 43 47 62 22 70M94 34C69 43 69 62 94 70" class="thin"/>
    <text x="58" y="126" text-anchor="middle" class="small">AI</text>
  </g>

  <line x1="450" y1="625" x2="450" y2="905" stroke="#6f808c" stroke-opacity=".26"/>
  <text x="72" y="780" class="metric">+71%</text>
  <text x="82" y="824" class="label">РОСТ ВЫРУЧКИ</text><text x="82" y="852" class="label">ГОД К ГОДУ</text>
  <text x="500" y="780" class="metric">41</text>
  <path d="M708 704H806V786H708Z" fill="none" stroke="url(#chrome)" stroke-width="8"/><path d="M720 704L744 676H776L796 704" fill="none" stroke="url(#chrome)" stroke-width="8"/>
  <text x="508" y="824" class="label">НОВЫЙ ПРОЕКТ</text>

  <path d="M245 1035C345 1000 410 930 500 900S665 790 850 685" fill="none" stroke="#8798a3" stroke-opacity=".25" stroke-width="4"/>
  <g fill="#c8d8e2" opacity=".45"><circle cx="245" cy="1035" r="5"/><circle cx="340" cy="1002" r="5"/><circle cx="430" cy="945" r="5"/><circle cx="520" cy="885" r="5"/><circle cx="620" cy="825" r="5"/><circle cx="730" cy="760" r="5"/><circle cx="850" cy="685" r="5"/></g>

  <g transform="translate(54 1080)"><rect width="180" height="62" rx="31" class="pill"/><text x="90" y="40" text-anchor="middle" class="small">БИТРИКС24</text></g>
  <g transform="translate(260 1080)"><rect width="150" height="62" rx="31" class="pill"/><text x="75" y="40" text-anchor="middle" class="small">1С</text></g>
  <g transform="translate(436 1080)"><rect width="188" height="62" rx="31" class="pill"/><text x="94" y="40" text-anchor="middle" class="small">DATALENS</text></g>
  <g transform="translate(650 1080)"><rect width="150" height="62" rx="31" class="pill"/><text x="75" y="40" text-anchor="middle" class="small">AI</text></g>
</svg>