<svg xmlns="http://www.w3.org/2000/svg" viewBox="0 0 900 1200" role="img" aria-label="Производство контента и рост интернет-магазина">
<defs>
  <linearGradient id="bg" x1="0" y1="0" x2="1" y2="1">
    <stop offset="0" stop-color="#020507"/><stop offset=".58" stop-color="#071018"/><stop offset="1" stop-color="#010203"/>
  </linearGradient>
  <linearGradient id="chrome" x1="0" y1="0" x2="1" y2="1">
    <stop offset="0" stop-color="#f9fdff"/><stop offset=".16" stop-color="#646d77"/>
    <stop offset=".34" stop-color="#ffffff"/><stop offset=".53" stop-color="#20262d"/>
    <stop offset=".72" stop-color="#dce8ef"/><stop offset="1" stop-color="#707984"/>
  </linearGradient>
  <linearGradient id="panel" x1="0" y1="0" x2="0" y2="1">
    <stop offset="0" stop-color="#111b24"/><stop offset="1" stop-color="#030609"/>
  </linearGradient>
  <radialGradient id="cyanGlow"><stop offset="0" stop-color="#4fd5ff" stop-opacity=".34"/><stop offset="1" stop-color="#4fd5ff" stop-opacity="0"/></radialGradient>
  <filter id="glow" x="-100%" y="-100%" width="300%" height="300%">
    <feGaussianBlur stdDeviation="10" result="b"/><feMerge><feMergeNode in="b"/><feMergeNode in="SourceGraphic"/></feMerge>
  </filter>
  <pattern id="grid" width="72" height="72" patternUnits="userSpaceOnUse">
    <path d="M72 0H0V72" fill="none" stroke="#5b7687" stroke-opacity=".12" stroke-width="1"/>
  </pattern>
  <style>
    .metric{font:700 92px Arial,sans-serif;fill:url(#chrome);letter-spacing:-4px}
    .label{font:500 20px Arial,sans-serif;fill:#b3c0ca;letter-spacing:2.5px}
    .small{font:500 17px Arial,sans-serif;fill:#8796a1;letter-spacing:2px}
  </style>
</defs>
<rect width="900" height="1200" rx="40" fill="url(#bg)"/>
<rect width="900" height="1200" rx="40" fill="url(#grid)"/>
<circle cx="660" cy="315" r="280" fill="url(#cyanGlow)"/>
<g transform="translate(55 230)">
  <rect x="0" y="120" width="260" height="235" rx="30" fill="url(#panel)" stroke="#60717d" stroke-width="3"/>
  <circle cx="128" cy="238" r="78" fill="#030609" stroke="url(#chrome)" stroke-width="18"/>
  <circle cx="128" cy="238" r="37" fill="#0a1821" stroke="#5edcff" stroke-opacity=".4" stroke-width="5"/>
  <rect x="45" y="55" width="156" height="80" rx="22" fill="url(#chrome)" opacity=".72"/>
  <rect x="235" y="162" width="105" height="75" rx="18" fill="#081017" stroke="#536875" stroke-width="3"/>
  <path d="M70 355 L42 460 H220 L190 355Z" fill="#101820" stroke="#4b5b66"/>
</g>
<g transform="translate(340 130)">
  <rect x="0" y="0" width="500" height="520" rx="32" fill="url(#panel)" stroke="#61717c" stroke-width="3"/>
  <rect x="30" y="38" width="440" height="380" rx="18" fill="#020507" stroke="#263944"/>
  <rect x="30" y="38" width="440" height="380" rx="18" fill="url(#grid)" opacity=".55"/>
  <g>
    <rect x="62" y="86" width="112" height="112" rx="16" fill="#0c1720" stroke="#557282"/>
    <path d="M105 118L145 142L105 166Z" fill="none" stroke="#8ce4ff" stroke-width="5"/>
    <rect x="196" y="86" width="112" height="112" rx="16" fill="#0c1720" stroke="#557282"/>
    <path d="M239 118L279 142L239 166Z" fill="none" stroke="#8ce4ff" stroke-width="5"/>
    <rect x="330" y="86" width="112" height="112" rx="16" fill="#0c1720" stroke="#557282"/>
    <path d="M373 118L413 142L373 166Z" fill="none" stroke="#8ce4ff" stroke-width="5"/>
  </g>
  <g opacity=".55">
    <rect x="62" y="245" width="380" height="18" rx="9" fill="#243643"/>
    <rect x="62" y="288" width="305" height="18" rx="9" fill="#243643"/>
    <rect x="62" y="331" width="345" height="18" rx="9" fill="#243643"/>
  </g>
  <path d="M-34 520 H536 L600 586 H-98Z" fill="url(#chrome)" opacity=".74"/>
</g>
<text x="62" y="865" class="metric">×3</text>
<text x="66" y="905" class="label" style="font-size:16px;letter-spacing:1.4px">ЗАЯВКИ В ИНТЕРНЕТ-МАГАЗИН</text>
<text x="500" y="865" class="metric">×5</text>
<text x="504" y="905" class="label" style="font-size:16px;letter-spacing:1.4px">ПРОИЗВОДСТВО КОНТЕНТА</text>
<text x="62" y="1080" class="metric" style="font-size:88px">+16%</text>
<text x="66" y="1120" class="label">КОНВЕРСИЯ САЙТА</text>
</svg>