<svg xmlns="http://www.w3.org/2000/svg" viewBox="0 0 900 1200"><defs><linearGradient id="m" x1="0" y1="0" x2="1" y2="1"><stop stop-color="#f4fbff"/><stop offset=".22" stop-color="#4d5962"/><stop offset=".48" stop-color="#d7e3e9"/><stop offset=".72" stop-color="#161d23"/><stop offset="1" stop-color="#aebbc4"/></linearGradient><filter id="g" x="-80%" y="-80%" width="260%" height="260%"><feGaussianBlur stdDeviation="10" result="b"/><feMerge><feMergeNode in="b"/><feMergeNode in="SourceGraphic"/></feMerge></filter><style>.n{font:300 88px Arial,sans-serif;fill:url(#m)}.l{font:500 18px Arial,sans-serif;fill:#a9bac4;letter-spacing:2px}</style></defs><ellipse cx="610" cy="385" rx="310" ry="360" fill="#43d4ff" opacity=".06"/><g transform="translate(420 90)"><circle cx="210" cy="250" r="202" fill="#03090d" stroke="url(#m)" stroke-width="18"/><circle cx="210" cy="250" r="158" fill="none" stroke="#657782" stroke-width="5"/><circle cx="210" cy="250" r="108" fill="none" stroke="#657782" stroke-width="5"/><circle cx="210" cy="250" r="54" fill="#06151e" stroke="#6bdfff" stroke-opacity=".55" stroke-width="5"/><g stroke="#4d606b" stroke-width="3"><path d="M210 48V452M8 250H412M68 108L352 392M352 108L68 392"/></g><circle cx="210" cy="250" r="14" fill="#9aeaff" filter="url(#g)"/></g><g transform="translate(20 238) rotate(-8 320 120)"><path d="M0 130H568" stroke="url(#m)" stroke-width="19" stroke-linecap="round"/><path d="M568 130L632 98L610 130L632 162Z" fill="#dff8ff"/><path d="M22 130L104 65L132 130L104 195Z" fill="#37434d" stroke="#9caab4" stroke-width="3"/></g><g transform="translate(70 785)"><text class="n" x="0" y="0">80+%</text><text class="l" x="4" y="38">МАРЖИНАЛЬНОСТЬ</text><text class="n" x="355" y="0">40</text><text class="l" x="359" y="38">ЛИДОВ В МЕСЯЦ</text><text class="n" x="630" y="0">0 ₽</text><text class="l" x="634" y="38">БЕЗ РЕКЛАМЫ</text></g></svg>